<svg width="156" height="156" viewBox="0 0 156 156" fill="none" xmlns="http://www.w3.org/2000/svg">
<g opacity="0.5">
<path d="M118.661 51.7841C116.509 51.7841 114.403 51.9791 112.351 52.3145C107.234 35.5835 91.3848 23.3999 72.6102 23.3999C49.686 23.3999 31.1142 41.5583 31.1142 63.9521C31.1142 65.9489 31.2702 67.9145 31.5588 69.8489C30.4486 69.7115 29.3312 69.6412 28.2126 69.6383C12.6282 69.6383 0 81.9779 0 97.2113C0 112.445 12.6282 124.8 28.2126 124.8H62.4V93.5999H42.9L78 54.5999L113.1 93.5999H93.6V124.8H118.661C139.277 124.8 156 108.451 156 88.2959C156 68.1251 139.277 51.7841 118.661 51.7841Z" fill="black"/>
</g>
</svg>
