<svg width="456" height="196" viewBox="0 0 456 196" fill="none" xmlns="http://www.w3.org/2000/svg">
<path fill-rule="evenodd" clip-rule="evenodd" d="M88 141C117.271 141 141 117.271 141 88C141 79.8766 139.172 72.1801 135.906 65.2991C137.695 65.7567 139.569 66 141.5 66C153.89 66 163.941 55.9854 164 43.6092C171.628 56.6407 176 71.8098 176 88C176 108.883 168.726 128.067 156.573 143.157L180 170C179.6 198 159.833 197.333 150 193.5L121 170L122.063 169.165C111.586 173.567 100.077 176 88 176C39.3989 176 0 136.601 0 88C0 39.3989 39.3989 0 88 0C109.961 0 130.043 8.04447 145.46 21.3474C144.175 21.1191 142.851 21 141.5 21C129.074 21 119 31.0736 119 43.5C119 44.0191 119.018 44.5342 119.052 45.0446C110.326 38.7253 99.5979 35 88 35C58.7289 35 35 58.7289 35 88C35 117.271 58.7289 141 88 141ZM131.697 57.999C129.849 55.3115 127.759 52.8031 125.458 50.5051C124.52 48.3601 124 45.9908 124 43.5C124 33.835 131.835 26 141.5 26C151.165 26 159 33.835 159 43.5C159 53.165 151.165 61 141.5 61C137.868 61 134.494 59.8934 131.697 57.999Z" fill="#254A52"/>
<circle cx="141.5" cy="43.5" r="18.5" fill="#F2C94C"/>
<path d="M219.892 105.204L213.359 98.671C211.761 99.1097 210.132 99.329 208.471 99.329C205.432 99.329 202.659 98.624 200.152 97.214C197.645 95.7727 195.656 93.783 194.183 91.245C192.742 88.6757 192.021 85.793 192.021 82.597C192.021 79.401 192.742 76.534 194.183 73.996C195.656 71.4267 197.645 69.437 200.152 68.027C202.659 66.5857 205.432 65.865 208.471 65.865C211.542 65.865 214.33 66.5857 216.837 68.027C219.344 69.437 221.318 71.411 222.759 73.949C224.2 76.487 224.921 79.3697 224.921 82.597C224.921 85.7303 224.232 88.5503 222.853 91.057C221.474 93.5637 219.579 95.5377 217.166 96.979L225.438 105.204H219.892ZM196.392 82.597C196.392 85.1977 196.909 87.485 197.943 89.459C199.008 91.433 200.45 92.9527 202.267 94.018C204.116 95.0833 206.184 95.616 208.471 95.616C210.758 95.616 212.811 95.0833 214.628 94.018C216.477 92.9527 217.918 91.433 218.952 89.459C220.017 87.485 220.55 85.1977 220.55 82.597C220.55 79.965 220.017 77.6777 218.952 75.735C217.918 73.761 216.492 72.2413 214.675 71.176C212.858 70.1107 210.79 69.578 208.471 69.578C206.152 69.578 204.084 70.1107 202.267 71.176C200.45 72.2413 199.008 73.761 197.943 75.735C196.909 77.6777 196.392 79.965 196.392 82.597ZM253.501 73.244V99H249.224V95.193C248.409 96.509 247.266 97.543 245.793 98.295C244.352 99.0157 242.754 99.376 240.999 99.376C238.994 99.376 237.192 98.9687 235.594 98.154C233.996 97.308 232.727 96.0547 231.787 94.394C230.878 92.7333 230.424 90.7123 230.424 88.331V73.244H234.654V87.767C234.654 90.305 235.296 92.2633 236.581 93.642C237.866 94.9893 239.62 95.663 241.845 95.663C244.132 95.663 245.934 94.958 247.25 93.548C248.566 92.138 249.224 90.0857 249.224 87.391V73.244H253.501ZM265 77.427C265.752 75.9543 266.817 74.8107 268.196 73.996C269.606 73.1813 271.313 72.774 273.319 72.774V77.192H272.191C267.397 77.192 265 79.7927 265 84.994V99H260.723V73.244H265V77.427ZM282.533 78.038C283.41 76.5027 284.695 75.2493 286.387 74.278C288.079 73.3067 290.006 72.821 292.168 72.821C294.486 72.821 296.57 73.3693 298.419 74.466C300.267 75.5627 301.724 77.1137 302.79 79.119C303.855 81.093 304.388 83.396 304.388 86.028C304.388 88.6287 303.855 90.9473 302.79 92.984C301.724 95.0207 300.252 96.603 298.372 97.731C296.523 98.859 294.455 99.423 292.168 99.423C289.943 99.423 287.985 98.9373 286.293 97.966C284.632 96.9947 283.379 95.757 282.533 94.253V99H278.256V64.22H282.533V78.038ZM300.017 86.028C300.017 84.0853 299.625 82.3933 298.842 80.952C298.058 79.5107 296.993 78.414 295.646 77.662C294.33 76.91 292.873 76.534 291.275 76.534C289.708 76.534 288.251 76.9257 286.904 77.709C285.588 78.461 284.522 79.5733 283.708 81.046C282.924 82.4873 282.533 84.1637 282.533 86.075C282.533 88.0177 282.924 89.7253 283.708 91.198C284.522 92.6393 285.588 93.7517 286.904 94.535C288.251 95.287 289.708 95.663 291.275 95.663C292.873 95.663 294.33 95.287 295.646 94.535C296.993 93.7517 298.058 92.6393 298.842 91.198C299.625 89.7253 300.017 88.002 300.017 86.028ZM308.419 86.028C308.419 83.396 308.952 81.093 310.017 79.119C311.083 77.1137 312.54 75.5627 314.388 74.466C316.268 73.3693 318.352 72.821 320.639 72.821C322.895 72.821 324.854 73.3067 326.514 74.278C328.175 75.2493 329.413 76.4713 330.227 77.944V73.244H334.551V99H330.227V94.206C329.381 95.71 328.112 96.9633 326.42 97.966C324.76 98.9373 322.817 99.423 320.592 99.423C318.305 99.423 316.237 98.859 314.388 97.731C312.54 96.603 311.083 95.0207 310.017 92.984C308.952 90.9473 308.419 88.6287 308.419 86.028ZM330.227 86.075C330.227 84.1323 329.836 82.4403 329.052 80.999C328.269 79.5577 327.204 78.461 325.856 77.709C324.54 76.9257 323.083 76.534 321.485 76.534C319.887 76.534 318.43 76.91 317.114 77.662C315.798 78.414 314.749 79.5107 313.965 80.952C313.182 82.3933 312.79 84.0853 312.79 86.028C312.79 88.002 313.182 89.7253 313.965 91.198C314.749 92.6393 315.798 93.7517 317.114 94.535C318.43 95.287 319.887 95.663 321.485 95.663C323.083 95.663 324.54 95.287 325.856 94.535C327.204 93.7517 328.269 92.6393 329.052 91.198C329.836 89.7253 330.227 88.0177 330.227 86.075ZM354.328 72.774C357.461 72.774 359.999 73.7297 361.942 75.641C363.885 77.521 364.856 80.247 364.856 83.819V99H360.626V84.43C360.626 81.8607 359.984 79.9023 358.699 78.555C357.414 77.1763 355.66 76.487 353.435 76.487C351.179 76.487 349.377 77.192 348.03 78.602C346.714 80.012 346.056 82.0643 346.056 84.759V99H341.779V73.244H346.056V76.91C346.902 75.594 348.046 74.5757 349.487 73.855C350.96 73.1343 352.573 72.774 354.328 72.774ZM207.136 110.396V155H193.15V110.396H207.136ZM238.338 119.216C242.412 119.216 245.583 120.581 247.851 123.311C250.161 126.041 251.316 129.737 251.316 134.399V155H237.393V136.163C237.393 134.483 236.931 133.16 236.007 132.194C235.125 131.186 233.928 130.682 232.416 130.682C230.862 130.682 229.644 131.186 228.762 132.194C227.88 133.16 227.439 134.483 227.439 136.163V155H213.453V119.468H227.439V124.886C228.531 123.206 229.98 121.841 231.786 120.791C233.634 119.741 235.818 119.216 238.338 119.216ZM255.49 137.486C255.49 134 256.204 130.871 257.632 128.099C259.06 125.327 260.971 123.164 263.365 121.61C265.801 120.014 268.405 119.216 271.177 119.216C273.067 119.216 274.726 119.489 276.154 120.035C277.582 120.539 278.863 121.4 279.997 122.618V119.468H293.92V172.01H279.997V151.094C278.737 152.564 277.393 153.656 275.965 154.37C274.579 155.042 272.983 155.378 271.177 155.378C268.363 155.378 265.759 154.622 263.365 153.11C260.971 151.598 259.06 149.498 257.632 146.81C256.204 144.08 255.49 140.972 255.49 137.486ZM279.997 137.234C279.997 135.176 279.451 133.685 278.359 132.761C277.309 131.795 276.133 131.312 274.831 131.312C273.571 131.312 272.395 131.837 271.303 132.887C270.211 133.895 269.665 135.428 269.665 137.486C269.665 139.502 270.19 140.972 271.24 141.896C272.332 142.778 273.529 143.219 274.831 143.219C276.133 143.219 277.309 142.736 278.359 141.77C279.451 140.804 279.997 139.292 279.997 137.234ZM307.257 116.633C304.821 116.633 302.868 115.982 301.398 114.68C299.928 113.378 299.193 111.74 299.193 109.766C299.193 107.75 299.928 106.091 301.398 104.789C302.868 103.445 304.821 102.773 307.257 102.773C309.651 102.773 311.583 103.445 313.053 104.789C314.523 106.091 315.258 107.75 315.258 109.766C315.258 111.74 314.523 113.378 313.053 114.68C311.583 115.982 309.651 116.633 307.257 116.633ZM314.187 119.468V155H300.201V119.468H314.187ZM334.49 108.38V155H320.504V108.38H334.49ZM338.916 137.234C338.916 133.496 339.546 130.262 340.806 127.532C342.108 124.76 343.872 122.66 346.098 121.232C348.324 119.762 350.823 119.027 353.595 119.027C355.905 119.027 357.9 119.51 359.58 120.476C361.26 121.4 362.541 122.681 363.423 124.319V119.468H377.346V155H363.423V150.149C362.541 151.787 361.26 153.089 359.58 154.055C357.9 154.979 355.905 155.441 353.595 155.441C350.823 155.441 348.324 154.727 346.098 153.299C343.872 151.829 342.108 149.729 340.806 146.999C339.546 144.227 338.916 140.972 338.916 137.234ZM363.423 137.234C363.423 135.344 362.94 133.874 361.974 132.824C361.008 131.774 359.769 131.249 358.257 131.249C356.745 131.249 355.506 131.774 354.54 132.824C353.574 133.874 353.091 135.344 353.091 137.234C353.091 139.124 353.574 140.594 354.54 141.644C355.506 142.694 356.745 143.219 358.257 143.219C359.769 143.219 361.008 142.694 361.974 141.644C362.94 140.594 363.423 139.124 363.423 137.234ZM397.613 124.319C398.495 122.681 399.755 121.4 401.393 120.476C403.073 119.51 405.068 119.027 407.378 119.027C410.15 119.027 412.649 119.762 414.875 121.232C417.101 122.66 418.844 124.76 420.104 127.532C421.406 130.262 422.057 133.496 422.057 137.234C422.057 140.972 421.406 144.227 420.104 146.999C418.844 149.729 417.101 151.829 414.875 153.299C412.649 154.727 410.15 155.441 407.378 155.441C405.068 155.441 403.073 154.979 401.393 154.055C399.755 153.089 398.495 151.787 397.613 150.149V155H383.627V108.38H397.613V124.319ZM407.882 137.234C407.882 135.344 407.399 133.874 406.433 132.824C405.467 131.774 404.228 131.249 402.716 131.249C401.204 131.249 399.965 131.774 398.999 132.824C398.033 133.874 397.55 135.344 397.55 137.234C397.55 139.124 398.033 140.594 398.999 141.644C399.965 142.694 401.204 143.219 402.716 143.219C404.228 143.219 405.467 142.694 406.433 141.644C407.399 140.594 407.882 139.124 407.882 137.234ZM433.503 116.633C431.067 116.633 429.114 115.982 427.644 114.68C426.174 113.378 425.439 111.74 425.439 109.766C425.439 107.75 426.174 106.091 427.644 104.789C429.114 103.445 431.067 102.773 433.503 102.773C435.897 102.773 437.829 103.445 439.299 104.789C440.769 106.091 441.504 107.75 441.504 109.766C441.504 111.74 440.769 113.378 439.299 114.68C437.829 115.982 435.897 116.633 433.503 116.633ZM440.433 119.468V155H426.447V119.468H440.433Z" fill="black"/>
<mask id="mask0" mask-type="alpha" maskUnits="userSpaceOnUse" x="33" y="35" width="109" height="109">
<circle cx="87.5" cy="89.5" r="54.5" fill="#C4C4C4"/>
</mask>
<g mask="url(#mask0)">
<path fill-rule="evenodd" clip-rule="evenodd" d="M64.0776 96.2226C63.6105 96.3958 62.9729 96.7147 62.6603 96.9314C62.3478 97.1481 61.9002 97.3255 61.6657 97.3255C61.0549 97.3255 58.6993 98.3076 57.4769 99.072C56.2699 99.8266 56.456 100.136 58.12 100.142C59.3377 100.146 59.3593 99.9707 57.6883 103.645C55.3531 108.779 54.4177 110.625 53.7572 111.402C52.6461 112.709 48.879 115.686 47.6029 116.267C46.1911 116.908 43.9554 117.297 41.67 117.297C39.8036 117.298 34.4533 116.57 31.2393 115.878C26.4584 114.849 22.921 115.522 19.8964 118.036C19.2765 118.552 18.6616 118.907 18.5302 118.827C18.1255 118.579 17.5266 117.273 16.8732 115.214L16.2486 113.244L15.4005 114.225C14.0217 115.821 13.8759 117.952 14.9393 120.977C15.3622 122.18 15.5388 123.021 15.4145 123.241C14.7723 124.377 13.3757 133.446 13.1808 137.746C13.0373 140.911 12.9938 141.08 11.8322 142.995L10.8575 144.603L10.7913 148.165C10.7548 150.125 10.5288 153.156 10.2894 154.901C9.78653 158.562 9.9021 159.615 10.9287 160.728C11.7952 161.667 12.014 161.668 12.5014 160.735L12.8908 159.989L13.3282 160.559C13.6866 161.025 13.8425 161.081 14.1909 160.865C14.5229 160.66 14.6014 160.351 14.5492 159.455C14.5124 158.824 14.459 156.51 14.4305 154.313L14.3788 150.318L15.2737 148.453C16.2171 146.487 18.9298 142.29 19.6237 141.722C19.9802 141.431 20.0143 141.433 19.8895 141.741C19.5874 142.482 18.0589 147.38 17.3222 149.966C16.6962 152.164 16.5329 153.217 16.448 155.606C16.3229 159.122 16.5239 159.567 18.3306 159.768C19.3465 159.882 19.426 159.85 19.5717 159.275C19.7317 158.644 20.0521 158.48 20.3117 158.896C20.5542 159.284 21.3388 159.16 21.4273 158.719C21.4729 158.493 21.2695 157.726 20.9757 157.016C20.6819 156.305 20.4403 155.406 20.4384 155.018C20.4315 153.445 21.5742 148.818 22.3042 147.464C23.3384 145.545 27.8728 139.731 28.2822 139.799C28.4668 139.829 29.6322 140.139 30.8722 140.486C32.9186 141.06 33.499 141.118 37.1611 141.118C41.0606 141.117 42.9326 140.851 45.1453 139.983C45.4918 139.846 45.5523 140.193 45.6864 143.076C45.8952 147.57 46.0461 149.224 46.3475 150.318C46.7526 151.787 46.6489 154.917 46.1477 156.353C45.8492 157.209 45.7103 158.283 45.708 159.759C45.7039 162.163 46.0063 162.839 47.4627 163.684C48.2176 164.121 48.2249 164.121 48.8042 163.582L49.3866 163.04L50.1018 163.564C50.4951 163.852 50.9132 164.028 51.0307 163.956C51.5663 163.629 51.5241 162.428 50.9177 160.747C50.0793 158.422 50.034 155.617 50.7893 152.786C51.3496 150.685 51.4939 148.299 51.244 145.266C51.1126 143.669 51.2856 141.243 51.6499 139.577C51.824 138.781 52.4631 138.569 53.5329 138.952C54.1853 139.185 54.3859 139.402 54.4722 139.966C54.6111 140.876 55.0387 144.712 55.2067 146.558C55.2772 147.334 55.5952 149.343 55.9132 151.023C56.2312 152.703 56.5972 155.265 56.7265 156.716C56.9897 159.67 57.4363 160.832 58.6796 161.796C59.5456 162.467 59.8246 162.415 59.8246 161.584C59.8246 160.903 59.7943 160.908 61.0219 161.395C62.7268 162.07 62.8815 161.111 61.4106 158.986C59.9022 156.805 59.2527 153.512 59.8087 150.863C60.1998 148.999 60.1683 147.523 59.6982 145.681C59.299 144.117 59.3018 144.062 59.9412 140.746C60.6303 137.172 61.0748 135.544 62.0689 132.951C62.6541 131.425 62.6959 131.037 62.7799 126.371C62.8566 122.11 63.3386 116.614 63.9893 112.578L64.1255 111.734L65.001 112.159C66.2632 112.773 70.0432 112.884 70.0147 112.307C70.0066 112.145 69.5541 111.692 69.009 111.3C68.0305 110.596 67.3895 109.49 67.7564 109.139C67.8604 109.039 68.119 109.222 68.3317 109.546C69.5152 111.345 70.9654 111.967 72.4996 111.332C73.56 110.893 73.4313 110.541 72.1354 110.336C71.4889 110.234 71.0594 109.998 70.7964 109.6C70.4276 109.043 70.4355 108.994 70.9573 108.575C71.3902 108.228 71.9123 108.134 73.4373 108.127C75.7354 108.117 76.3852 107.824 76.8088 106.603C77.071 105.848 77.0661 105.604 76.7782 105.053C76.5905 104.693 76.4367 104.099 76.4367 103.732C76.4367 103.339 76.1688 102.765 75.7841 102.333C74.6865 101.1 69.4993 97.0428 68.4095 96.5639C67.0684 95.9747 65.154 95.8238 64.0776 96.2226Z" fill="#254A52"/>
<path fill-rule="evenodd" clip-rule="evenodd" d="M78.1182 61.3402C77.7925 61.5369 77.3075 62.0176 77.0403 62.4084C76.3246 63.4553 75.946 63.5222 74.1903 62.9121C72.4174 62.2957 71.453 62.2577 70.897 62.7821C70.5349 63.1236 70.4965 63.2797 70.383 64.8752C70.2244 67.1032 70.0389 67.4921 68.5892 68.636C67.8609 69.2107 67.3164 69.7834 67.0784 70.2254C66.7298 70.8721 66.7015 71.083 66.6328 73.5386C66.5925 74.9809 66.4947 76.2731 66.4154 76.4103C66.3361 76.5473 65.5097 77.7274 64.579 79.0327C62.5439 81.8867 60.8381 83.7442 59.4287 84.6411C57.9239 85.5987 57.9466 85.5378 58.032 88.3768C58.0719 89.7004 58.1664 90.9639 58.2422 91.185C58.4232 91.7127 58.7531 91.923 60.245 92.4608C60.9286 92.7073 61.8793 93.0673 62.3576 93.2609C63.529 93.7347 65.2082 93.7361 66.4066 93.2646C67.363 92.888 67.5076 92.9084 68.6987 93.5858C69.9203 94.2805 71.884 94.7662 74.7587 95.0844C76.7523 95.3052 77.5368 95.3307 78.3824 95.203C78.9762 95.1132 79.6025 95.0969 79.7746 95.1667C79.9465 95.2367 80.3175 95.6736 80.5992 96.1378C80.8808 96.6019 81.4186 97.3751 81.7942 97.8559C83.4541 99.9811 83.787 100.916 84.0293 104.134C84.5801 111.448 86.0666 116.461 87.9797 117.456C88.2568 117.6 88.965 117.793 89.5534 117.884C91.0574 118.118 91.5453 118.283 92.3226 118.824C93.2008 119.435 93.7551 120.273 94.6421 122.332C97.1781 128.219 97.9932 129.88 98.7372 130.676C99.1457 131.113 99.846 131.673 100.293 131.92C101.659 132.674 101.603 132.493 101.73 136.601C101.896 142 102.037 143.166 102.83 145.696C103.304 147.209 103.352 147.521 103.346 149.034C103.339 150.788 102.835 153.793 101.787 158.331C100.922 162.072 100.706 162.501 98.858 164.157C97.4927 165.38 96.6386 166.542 96.6386 167.175C96.6386 167.902 97.3092 168.131 99.7188 168.229C100.815 168.273 101.712 168.333 101.712 168.362C101.712 168.391 101.422 168.905 101.069 169.504C100.241 170.908 100.153 171.285 100.559 171.689C100.852 171.98 101.102 172 104.373 172C106.297 172 108.05 171.945 108.268 171.879C108.826 171.707 109.648 170.872 109.997 170.123C110.419 169.215 110.388 167.956 109.913 166.79C109.708 166.285 109.539 165.62 109.539 165.312C109.539 164.456 110.004 163.656 110.5 163.656C110.537 163.656 110.526 163.899 110.475 164.195C110.28 165.335 111.006 165.769 111.832 165.007C112.488 164.402 112.526 163.937 112.009 162.848C111.394 161.552 111.179 160.356 110.986 157.159C110.861 155.079 110.861 153.85 110.986 152.179C111.177 149.637 111.286 149.138 112.712 144.266C113.288 142.299 114.346 138.472 115.065 135.762C117.214 127.655 117.173 127.781 117.868 127.019C118.317 126.527 118.676 126.298 119.227 126.153C120.118 125.919 120.474 126.025 121.859 126.937C123.552 128.052 124.419 128.292 131.572 129.623C135.712 130.393 135.89 130.42 138.043 130.582C141.162 130.816 143.832 130.412 146.288 129.334C147.805 128.668 148.111 128.691 148.704 129.515C149.487 130.603 150.577 131.737 151.652 132.584C152.934 133.592 153.315 134.34 153.315 135.851C153.315 136.994 153.547 137.431 154.155 137.431C154.449 137.431 154.466 137.348 154.506 135.723C154.545 134.088 154.561 134.012 154.873 133.963C155.195 133.913 155.199 133.933 155.199 135.811C155.199 137.898 155.285 138.131 156.024 138.039L156.431 137.987L156.467 136.319C156.515 134.086 156.554 133.935 157.078 133.935C157.788 133.935 157.953 134.391 157.953 136.354C157.953 138.33 158.125 138.703 159.04 138.703H159.548V136.882C159.548 135.075 159.689 134.349 160.074 134.187C160.235 134.119 160.272 134.496 160.272 136.212C160.272 138.433 160.344 138.703 160.934 138.703C161.196 138.703 161.292 138.536 161.506 137.709C161.647 137.163 161.804 136.043 161.854 135.221C161.944 133.744 161.951 133.721 162.449 133.314C163.492 132.461 164.572 131.105 165.273 129.768C165.672 129.008 166.042 128.382 166.095 128.379C166.303 128.364 166.386 130.509 166.234 131.985C165.684 137.331 165.673 138.816 166.161 141.923C166.499 144.071 166.532 144.614 166.458 146.729C166.385 148.803 165.965 153.085 165.694 154.517C165.481 155.646 164.559 157.174 162.946 159.069C162.047 160.126 161.279 161.128 161.239 161.295C161.192 161.494 161.276 161.675 161.48 161.815C161.877 162.088 164.911 162.282 166.424 162.131C168.302 161.945 168.846 161.305 169.1 158.983C169.272 157.407 169.508 156.872 170.095 156.732C170.92 156.534 171.269 156.303 171.445 155.838C171.6 155.427 171.581 155.206 171.312 154.291C171.014 153.274 170.999 152.94 171.001 147.354C171.002 144.125 171.068 140.626 171.147 139.577C171.225 138.528 171.385 136.454 171.502 134.968C171.706 132.377 171.703 132.217 171.429 131.085C171.045 129.496 171.062 128.979 171.519 128.384C171.725 128.115 171.945 127.895 172.006 127.895C172.148 127.895 172.784 129.44 173.155 130.683C173.31 131.204 173.73 132.417 174.089 133.378C174.448 134.34 174.949 136.056 175.203 137.193C175.537 138.686 175.912 139.832 176.556 141.325L177.447 143.391L177.496 147.126C177.564 152.343 177.238 156.007 176.48 158.556C176.106 159.817 174.822 162.829 174.209 163.886C173.724 164.722 173.626 165.409 173.951 165.705C174.227 165.956 177.797 166.236 179.116 166.11C181.566 165.876 182.3 164.824 181.651 162.478C181.386 161.52 181.366 160.068 181.616 159.89C181.716 159.82 182.122 159.762 182.519 159.762C183.484 159.762 183.501 159.552 182.69 157.73C181.586 155.253 181.532 154.799 181.468 147.444C181.404 139.986 181.567 135.996 182.007 134.294C182.523 132.302 182.452 131.803 181.29 129.251C179.508 125.337 179.26 123.727 179.262 116.054C179.264 109.449 179.521 105.905 180.363 100.876C180.854 97.9398 181.821 93.6152 182.075 93.2183C182.275 92.9047 182.297 92.9219 182.638 93.6656C183.547 95.6427 184.567 99.6452 185.068 103.201C185.33 105.066 185.396 106.482 185.494 112.399C185.617 119.796 185.72 121.106 186.438 124.372C187.173 127.717 188.308 130.582 189.796 132.848C190.664 134.171 192.553 136.245 194.04 137.511C195.385 138.655 195.496 138.928 195.652 141.508C195.725 142.703 195.809 143.709 195.84 143.743C195.903 143.811 196.549 141.864 196.827 140.769C196.935 140.343 197.005 139.153 197 137.829C196.992 135.888 196.942 135.424 196.604 134.204C196.391 133.434 196.057 132.459 195.862 132.037C195.226 130.661 193.776 128.737 192 126.911C188.727 123.548 187.673 121.494 187.082 117.326C186.996 116.714 186.87 113.352 186.802 109.856C186.618 100.294 186.29 98.2172 184.032 92.3437C183.489 90.929 182.908 89.2482 182.742 88.6087C182.576 87.9689 182.343 87.0794 182.226 86.6316C181.767 84.8859 180.316 83.6597 175.8 81.2001L172.991 79.6705L171.669 79.6112C170.595 79.5631 169.924 79.6481 168.1 80.0628C166.24 80.4856 165.516 80.5752 163.896 80.5823C161.611 80.5924 160.165 80.3624 155.344 79.2226L151.938 78.4173L148.241 78.2956C145.923 78.2193 144.116 78.0813 143.395 77.9254C142.762 77.7887 141.229 77.6024 139.988 77.5112C134.46 77.105 133.33 76.9864 130.06 76.4695C128.152 76.1679 124.336 75.5965 121.58 75.1996C118.824 74.8026 115.689 74.3353 114.613 74.1613C111.44 73.6479 106.783 73.0618 105.876 73.0618C104.805 73.0618 103.276 73.4078 101.629 74.0232C100.917 74.2889 99.8783 74.6138 99.3202 74.7451C97.9996 75.056 95.6505 75.0513 94.5368 74.7355C93.6886 74.4951 91.1958 73.255 91.3096 73.1301C91.3411 73.0956 91.9496 73.1794 92.6619 73.3162C94.7677 73.7206 95.6235 73.4098 97.0183 71.7348C98.3831 70.0954 99.3472 68.0975 99.7242 66.1274C99.8623 65.405 99.8542 65.1798 99.6778 64.8268C99.1328 63.7366 96.7336 63.1954 94.9568 63.7619C93.81 64.1275 92.9583 64.6159 90.9051 66.0851C89.9439 66.773 88.9635 67.3782 88.7263 67.4302C88.3921 67.5034 88.0026 67.3599 86.9949 66.7919C85.1408 65.7467 84.4497 65.1369 83.6794 63.8665C82.8854 62.5568 81.9856 61.7776 80.7335 61.3151C79.576 60.8875 78.8563 60.8944 78.1182 61.3402Z" fill="#254A52"/>
</g>
</svg>
